<svg width="500" height="500" viewBox="0 0 500 500" fill="none" xmlns="http://www.w3.org/2000/svg">
<path d="M205.352 39.689C211.597 -13.2297 288.403 -13.2297 294.648 39.689V39.689C298.767 74.5942 339.547 91.4857 367.141 69.7166V69.7166C408.976 36.7134 463.287 91.0236 430.283 132.859V132.859C408.514 160.453 425.406 201.233 460.311 205.352V205.352C513.23 211.597 513.23 288.403 460.311 294.648V294.648C425.406 298.767 408.514 339.547 430.283 367.141V367.141C463.287 408.976 408.976 463.287 367.141 430.283V430.283C339.547 408.514 298.767 425.406 294.648 460.311V460.311C288.403 513.23 211.597 513.23 205.352 460.311V460.311C201.233 425.406 160.453 408.514 132.859 430.283V430.283C91.0236 463.287 36.7134 408.976 69.7166 367.141V367.141C91.4857 339.547 74.5942 298.767 39.689 294.648V294.648C-13.2297 288.403 -13.2297 211.597 39.689 205.352V205.352C74.5942 201.233 91.4857 160.453 69.7166 132.859V132.859C36.7134 91.0236 91.0236 36.7134 132.859 69.7166V69.7166C160.453 91.4857 201.233 74.5942 205.352 39.689V39.689Z" fill="#FDFF9C"/>
</svg>
