<svg width="159" height="160" viewBox="0 0 159 160" fill="none" xmlns="http://www.w3.org/2000/svg">
<path d="M9.91298 61.4492L19.1756 64.1487L21.3413 56.7178L23.2595 57.2768L20.424 67.0061L9.24314 63.7475L9.91298 61.4492Z" fill="#E5E6EB"/>
<path d="M28.1844 42.6621L29.4089 40.7531C29.8722 41.1643 30.1925 41.6762 30.3698 42.2889C30.5535 42.8915 30.5704 43.5653 30.4205 44.3102C30.2706 45.0552 29.9202 45.8569 29.3695 46.7155C28.754 47.6751 28.0583 48.4263 27.2823 48.9693C26.4962 49.5058 25.6774 49.7932 24.826 49.8316C23.9745 49.8699 23.1346 49.6235 22.3064 49.0922C21.4781 48.5609 20.9006 47.9054 20.574 47.1256C20.2372 46.3393 20.1422 45.4872 20.2891 44.5692C20.4425 43.6411 20.8301 42.6922 21.4521 41.7225C22.0871 40.7327 22.7716 40.0099 23.5059 39.5542C24.2401 39.0985 25.0259 38.9182 25.8631 39.0132C26.6966 39.0917 27.5871 39.4704 28.5345 40.1494L23.928 47.331C24.3442 47.5266 24.7833 47.6088 25.2455 47.5773C25.7141 47.5357 26.1689 47.3712 26.6099 47.0838C27.0573 46.7863 27.4624 46.3547 27.8253 45.7891C28.227 45.1629 28.4546 44.5747 28.5081 44.0245C28.558 43.4577 28.4501 43.0036 28.1844 42.6621ZM22.8938 42.7756C22.4273 43.5028 22.2099 44.1974 22.2415 44.8592C22.2631 45.5146 22.4641 46.057 22.8445 46.4863L26.1293 41.3653C25.5919 41.0918 25.0374 41.0783 24.4659 41.3248C23.8908 41.5546 23.3667 42.0382 22.8938 42.7756Z" fill="#E5E6EB"/>
<path d="M39.1734 35.2776C38.5037 35.8607 37.7667 36.2477 36.9625 36.4388C36.1594 36.6129 35.3665 36.5793 34.5836 36.338C33.802 36.0798 33.1078 35.6023 32.5011 34.9054C31.8786 34.1904 31.5017 33.4286 31.3705 32.62C31.2393 31.8114 31.3237 31.022 31.6236 30.2517C31.9248 29.4645 32.4283 28.7636 33.1342 28.149C33.9126 27.4713 34.675 27.086 35.4214 26.9931C36.1689 26.8832 36.8838 27.0007 37.5659 27.3455C38.248 27.6904 38.8767 28.1932 39.4519 28.8539C39.7986 29.2521 40.0898 29.7145 40.3256 30.2412C40.5534 30.7588 40.6898 31.3083 40.7346 31.8898C40.7716 32.4622 40.6719 33.0422 40.4357 33.6297C40.1915 34.2082 39.7708 34.7575 39.1734 35.2776ZM38.5617 33.4236C39.0957 32.9587 39.4785 32.4663 39.71 31.9465C39.9416 31.4267 40.0197 30.9132 39.9442 30.4062C39.8687 29.8991 39.6457 29.4329 39.2754 29.0075C38.8735 28.546 38.4261 28.2513 37.9331 28.1237C37.4413 27.9791 36.9299 27.9947 36.3989 28.1707C35.869 28.3296 35.3371 28.6416 34.8031 29.1065C34.0519 29.7605 33.6415 30.4678 33.5719 31.2285C33.4944 31.9801 33.7393 32.6818 34.3066 33.3334C34.6849 33.7678 35.1154 34.0613 35.5981 34.2138C36.073 34.3572 36.5658 34.3657 37.0763 34.2394C37.5959 34.1053 38.0911 33.8333 38.5617 33.4236ZM36.3324 25.6271L38.0972 24.0906L43.9714 30.8378L42.3288 32.268C42.3288 32.268 42.2403 32.1938 42.0635 32.0455C41.8878 31.8802 41.6727 31.6697 41.4182 31.414C41.1637 31.1582 40.9222 30.8991 40.6937 30.6366L36.3324 25.6271Z" fill="#E5E6EB"/>
<path d="M45.0744 19.6771L47.1558 18.6079L51.2434 26.5655L49.1619 27.6347L45.0744 19.6771ZM51.094 18.7503C50.4962 19.0573 50.0389 19.4406 49.7218 19.9003C49.3993 20.3492 49.1897 20.8077 49.0928 21.2757C48.9959 21.7436 48.9736 22.1598 49.0258 22.5242L48.5575 21.6518C48.5024 21.5182 48.4491 21.3095 48.3977 21.0256C48.3409 20.7311 48.3131 20.4013 48.3145 20.0363C48.3104 19.6607 48.3626 19.2764 48.471 18.8834C48.574 18.4798 48.7577 18.1021 49.0223 17.7504C49.2868 17.3987 49.6539 17.1022 50.1235 16.8609L51.094 18.7503Z" fill="#E5E6EB"/>
<path d="M58.7149 13.6102L60.991 13.0671L63.0674 21.7688L60.7913 22.3119L58.7149 13.6102ZM64.9895 11.9094C65.5264 11.7813 66.0392 11.7329 66.5279 11.7644C67.0165 11.7958 67.4649 11.917 67.873 12.1281C68.2811 12.3391 68.6329 12.6499 68.9283 13.0606C69.2209 13.4596 69.441 13.9684 69.5886 14.587L70.8587 19.9096L68.5826 20.4527L67.4086 15.5328C67.2331 14.7975 66.9241 14.3037 66.4815 14.0516C66.0477 13.785 65.4282 13.7478 64.6228 13.9399C64.0158 14.0848 63.4951 14.3324 63.0606 14.6828C62.626 15.0333 62.3002 15.4256 62.0831 15.8599C61.8631 16.2824 61.7758 16.6919 61.821 17.0882L61.5904 16.1995C61.5513 15.777 61.5908 15.3481 61.709 14.9128C61.8272 14.4775 62.0238 14.0605 62.2988 13.6618C62.5826 13.2486 62.9474 12.8901 63.3931 12.5864C63.8387 12.2827 64.3709 12.057 64.9895 11.9094Z" fill="#E5E6EB"/>
<path d="M95.2494 20.4039L94.1537 20.1115L103.32 11.7341L105.633 12.3515L102.63 23.6035L100.317 22.9861L102.499 14.8123L103.013 15.1174L95.7082 21.756L93.1169 21.0643L90.0825 11.7031L90.6808 11.6951L88.5083 19.8341L86.1953 19.2167L89.1987 7.96468L91.5117 8.58209L95.2494 20.4039Z" fill="#E5E6EB"/>
<path d="M114.324 30.8884C113.399 30.2416 112.687 29.523 112.185 28.7327C111.694 27.9492 111.447 27.1397 111.446 26.3041C111.452 25.4586 111.744 24.623 112.322 23.7971C112.9 22.9713 113.585 22.4109 114.377 22.1159C115.176 21.811 116.028 21.7554 116.933 21.949C117.847 22.1494 118.766 22.573 119.69 23.2198C120.615 23.8665 121.318 24.5782 121.799 25.3548C122.291 26.1383 122.53 26.9576 122.518 27.8129C122.512 28.6584 122.22 29.494 121.642 30.3199C121.064 31.1457 120.379 31.7061 119.587 32.0011C118.801 32.2863 117.956 32.3321 117.052 32.1386C116.157 31.9519 115.248 31.5351 114.324 30.8884ZM115.356 29.4136C115.867 29.7714 116.386 30.0029 116.913 30.108C117.457 30.2102 117.967 30.1718 118.444 29.9928C118.927 29.804 119.345 29.4589 119.695 28.9575C120.046 28.4561 120.228 27.9459 120.239 27.4268C120.258 26.8979 120.131 26.399 119.859 25.9301C119.586 25.4612 119.19 25.0444 118.669 24.6798C118.157 24.322 117.63 24.092 117.086 23.9898C116.543 23.8876 116.024 23.9275 115.531 24.1094C115.047 24.2982 114.626 24.6482 114.268 25.1595C113.918 25.6609 113.736 26.1711 113.724 26.6902C113.72 27.1994 113.858 27.6919 114.14 28.1677C114.43 28.6337 114.835 29.049 115.356 29.4136Z" fill="#E5E6EB"/>
<path d="M129.472 31.8243L131.015 33.5835L124.289 39.4822L122.747 37.723L129.472 31.8243ZM131.834 37.4382C131.391 36.933 130.908 36.5825 130.385 36.3867C129.871 36.1829 129.376 36.0909 128.898 36.1107C128.421 36.1304 128.012 36.2099 127.671 36.3491L128.403 35.6828C128.519 35.5969 128.709 35.4945 128.972 35.3757C129.244 35.2489 129.557 35.1419 129.911 35.0546C130.275 34.9593 130.66 34.9166 131.068 34.9262C131.484 34.928 131.895 35.0145 132.301 35.1856C132.706 35.3567 133.083 35.6408 133.431 36.0377L131.834 37.4382Z" fill="#E5E6EB"/>
<path d="M137.411 54.0823L138.455 56.0959C137.867 56.2923 137.264 56.3145 136.644 56.1625C136.03 56.0212 135.438 55.6997 134.867 55.1982C134.296 54.6966 133.776 53.9931 133.307 53.0875C132.782 52.0754 132.478 51.0976 132.394 50.1542C132.322 49.2053 132.481 48.3523 132.872 47.5952C133.264 46.8381 133.896 46.2331 134.77 45.7803C135.644 45.3274 136.5 45.1539 137.339 45.2598C138.188 45.3601 138.974 45.7029 139.696 46.2881C140.424 46.884 141.053 47.6933 141.583 48.7161C142.125 49.7602 142.41 50.7141 142.438 51.5777C142.467 52.4414 142.231 53.2124 141.731 53.8905C141.247 54.5739 140.475 55.1567 139.414 55.6391L135.488 48.0643C135.11 48.3274 134.82 48.6671 134.617 49.0833C134.419 49.5102 134.335 49.9864 134.364 50.512C134.399 51.0482 134.571 51.6146 134.88 52.2112C135.222 52.8717 135.618 53.3624 136.069 53.6832C136.535 54.0092 136.982 54.1422 137.411 54.0823ZM139.952 49.4403C139.554 48.6732 139.061 48.1383 138.471 47.8356C137.892 47.5274 137.322 47.431 136.76 47.5466L139.56 52.9481C140.065 52.6187 140.353 52.1448 140.425 51.5266C140.513 50.9134 140.355 50.218 139.952 49.4403Z" fill="#E5E6EB"/>
<path d="M146.466 72.2938L146.866 76.9929L142.167 77.3925L141.767 72.6935L146.466 72.2938Z" fill="#E5E6EB"/>
<path d="M148.554 100.131L139.366 97.1873L137.005 104.558L135.102 103.949L138.194 94.2979L149.285 97.8511L148.554 100.131Z" fill="#E5E6EB"/>
<path d="M129.739 118.48L128.466 120.357C128.014 119.934 127.707 119.414 127.545 118.797C127.377 118.189 127.377 117.515 127.546 116.775C127.715 116.034 128.086 115.241 128.659 114.397C129.299 113.454 130.013 112.72 130.803 112.198C131.603 111.681 132.428 111.415 133.281 111.399C134.133 111.382 134.966 111.65 135.78 112.202C136.595 112.755 137.155 113.425 137.462 114.213C137.778 115.007 137.851 115.862 137.681 116.776C137.504 117.699 137.092 118.638 136.445 119.591C135.785 120.565 135.082 121.27 134.337 121.706C133.591 122.143 132.801 122.303 131.966 122.187C131.135 122.087 130.255 121.685 129.325 120.982L134.114 113.921C133.703 113.715 133.266 113.622 132.803 113.641C132.334 113.671 131.875 113.824 131.427 114.1C130.972 114.386 130.556 114.807 130.179 115.363C129.761 115.978 129.518 116.561 129.451 117.109C129.386 117.675 129.483 118.131 129.739 118.48ZM135.031 118.502C135.516 117.787 135.751 117.098 135.737 116.436C135.732 115.78 135.545 115.233 135.176 114.794L131.761 119.829C132.291 120.116 132.845 120.144 133.422 119.912C134.003 119.697 134.539 119.227 135.031 118.502Z" fill="#E5E6EB"/>
<path d="M118.461 125.604C119.145 125.038 119.892 124.67 120.701 124.499C121.508 124.346 122.3 124.4 123.076 124.661C123.851 124.939 124.533 125.434 125.122 126.146C125.726 126.877 126.083 127.648 126.194 128.459C126.304 129.271 126.2 130.058 125.88 130.82C125.559 131.6 125.038 132.288 124.317 132.884C123.521 133.542 122.749 133.907 122.001 133.981C121.251 134.072 120.539 133.936 119.866 133.574C119.193 133.212 118.577 132.694 118.019 132.018C117.682 131.612 117.403 131.142 117.181 130.609C116.966 130.086 116.844 129.533 116.814 128.951C116.792 128.378 116.906 127.8 117.157 127.219C117.416 126.647 117.85 126.109 118.461 125.604ZM119.025 127.473C118.48 127.924 118.084 128.407 117.84 128.92C117.595 129.434 117.504 129.945 117.566 130.454C117.629 130.963 117.84 131.435 118.199 131.869C118.589 132.341 119.029 132.647 119.519 132.787C120.007 132.944 120.518 132.942 121.054 132.779C121.587 132.634 122.127 132.335 122.673 131.884C123.44 131.25 123.868 130.553 123.957 129.794C124.054 129.045 123.827 128.337 123.277 127.671C122.91 127.228 122.487 126.923 122.008 126.758C121.537 126.603 121.044 126.582 120.531 126.695C120.008 126.816 119.506 127.075 119.025 127.473ZM121.055 135.324L119.252 136.815L113.551 129.92L115.23 128.532C115.23 128.532 115.316 128.609 115.489 128.761C115.661 128.931 115.871 129.147 116.118 129.409C116.366 129.671 116.601 129.936 116.823 130.205L121.055 135.324Z" fill="#E5E6EB"/>
<path d="M112.21 140.956L110.102 141.97L106.222 133.909L108.33 132.895L112.21 140.956ZM106.168 141.726C106.774 141.434 107.241 141.063 107.57 140.612C107.904 140.171 108.125 139.719 108.234 139.253C108.343 138.788 108.377 138.372 108.334 138.007L108.779 138.891C108.831 139.026 108.879 139.236 108.923 139.521C108.972 139.817 108.991 140.148 108.98 140.512C108.975 140.888 108.912 141.271 108.794 141.661C108.681 142.062 108.487 142.434 108.213 142.779C107.94 143.124 107.565 143.411 107.089 143.64L106.168 141.726Z" fill="#E5E6EB"/>
<path d="M98.0861 146.699L95.7964 147.181L93.9528 138.427L96.2425 137.945L98.0861 146.699ZM91.7684 148.232C91.2283 148.345 90.7144 148.38 90.2267 148.336C89.7391 148.291 89.2941 148.158 88.8918 147.936C88.4894 147.714 88.1461 147.394 87.8618 146.976C87.5799 146.569 87.3734 146.055 87.2424 145.432L86.1147 140.078L88.4045 139.596L89.4468 144.545C89.6026 145.285 89.8984 145.787 90.3341 146.05C90.7606 146.329 91.3789 146.382 92.1892 146.212C92.7998 146.083 93.3269 145.849 93.7706 145.511C94.2144 145.172 94.5506 144.788 94.7792 144.36C95.0103 143.944 95.1085 143.537 95.0739 143.139L95.2807 144.034C95.3085 144.457 95.2576 144.885 95.1278 145.317C94.9981 145.749 94.7904 146.16 94.5049 146.552C94.2102 146.957 93.836 147.306 93.3824 147.598C92.9287 147.889 92.3908 148.101 91.7684 148.232Z" fill="#E5E6EB"/>
<path d="M61.956 138.786L63.0435 139.107L53.658 147.238L51.3621 146.56L54.663 135.391L56.9588 136.07L54.561 144.183L54.0545 143.864L61.5332 137.422L64.1052 138.182L66.8903 147.621L66.292 147.613L68.6796 139.534L70.9754 140.213L67.6746 151.381L65.3788 150.703L61.956 138.786Z" fill="#E5E6EB"/>
<path d="M43.2462 127.759C44.1535 128.429 44.8477 129.166 45.3288 129.968C45.8002 130.764 46.0257 131.58 46.0055 132.415C45.978 133.26 45.6649 134.088 45.066 134.899C44.4671 135.71 43.7678 136.252 42.9682 136.527C42.1615 136.811 41.3085 136.845 40.4093 136.629C39.5004 136.405 38.5923 135.958 37.685 135.288C36.7777 134.617 36.0931 133.888 35.6314 133.099C35.1599 132.304 34.9415 131.478 34.9761 130.624C35.0035 129.779 35.3167 128.951 35.9155 128.14C36.5144 127.329 37.2137 126.786 38.0133 126.512C38.8058 126.247 39.6516 126.223 40.5508 126.439C41.4404 126.649 42.3388 127.089 43.2462 127.759ZM42.1767 129.207C41.6748 128.836 41.1618 128.591 40.6377 128.473C40.0968 128.357 39.5858 128.382 39.1046 128.549C38.6163 128.725 38.1903 129.059 37.8267 129.552C37.4631 130.044 37.2688 130.549 37.2438 131.068C37.2116 131.596 37.3257 132.098 37.586 132.574C37.8463 133.05 38.2322 133.476 38.7438 133.854C39.2457 134.225 39.7671 134.468 40.3079 134.585C40.8488 134.701 41.3682 134.674 41.8662 134.505C42.3545 134.328 42.7841 133.989 43.1548 133.487C43.5184 132.995 43.7127 132.49 43.7377 131.971C43.7556 131.462 43.6296 130.966 43.3597 130.483C43.0826 130.01 42.6883 129.585 42.1767 129.207Z" fill="#E5E6EB"/>
<path d="M28.2147 126.46L26.717 124.662L33.5908 118.936L35.0885 120.734L28.2147 126.46ZM25.9966 120.788C26.4266 121.304 26.9006 121.667 27.4183 121.876C27.9268 122.092 28.42 122.197 28.8978 122.189C29.3756 122.182 29.7867 122.113 30.1309 121.982L29.3817 122.63C29.2634 122.713 29.0713 122.81 28.8055 122.922C28.5304 123.042 28.2147 123.141 27.8582 123.219C27.4925 123.305 27.1061 123.338 26.6989 123.318C26.2825 123.306 25.8739 123.209 25.4729 123.028C25.0719 122.846 24.7025 122.553 24.3645 122.147L25.9966 120.788Z" fill="#E5E6EB"/>
<path d="M20.9247 104.082L19.9336 102.042C20.526 101.861 21.1299 101.854 21.7452 102.022C22.3552 102.179 22.9391 102.516 23.4967 103.032C24.0544 103.548 24.5561 104.265 25.0018 105.183C25.5 106.208 25.7786 107.193 25.8376 108.139C25.8858 109.089 25.7044 109.938 25.2934 110.684C24.8824 111.431 24.2344 112.019 23.3493 112.449C22.4642 112.879 21.6038 113.031 20.768 112.903C19.9215 112.781 19.1447 112.418 18.4378 111.814C17.7256 111.199 17.1178 110.374 16.6144 109.338C16.1004 108.28 15.8403 107.319 15.8341 106.455C15.8278 105.591 16.0834 104.826 16.6008 104.161C17.1022 103.491 17.8895 102.928 18.9627 102.473L22.6912 110.148C23.0751 109.894 23.3741 109.562 23.5881 109.151C23.7968 108.73 23.8935 108.256 23.878 107.73C23.8573 107.193 23.7001 106.622 23.4064 106.018C23.0812 105.349 22.6978 104.848 22.2562 104.515C21.7985 104.177 21.3547 104.033 20.9247 104.082ZM18.2644 108.656C18.642 109.433 19.1214 109.981 19.7028 110.299C20.2734 110.622 20.841 110.733 21.4057 110.632L18.7469 105.16C18.2335 105.476 17.933 105.942 17.8455 106.558C17.7419 107.169 17.8816 107.868 18.2644 108.656Z" fill="#E5E6EB"/>
<path d="M12.3506 85.5639L12.0778 80.8558L16.7859 80.583L17.0587 85.2911L12.3506 85.5639Z" fill="#E5E6EB"/>
</svg>
