<svg width="700" height="277" viewBox="0 0 700 277" fill="none" xmlns="http://www.w3.org/2000/svg">
<path d="M661.468 0H700V218.628H661.468V0Z" fill="#E5E6EB"/>
<path d="M635.779 214.838H595.125V57.8721H635.779V214.838ZM597.314 139.355L597.627 150.093C597.21 153.041 596.168 157.357 594.5 163.042C592.832 168.517 590.226 174.412 586.682 180.729C583.346 187.045 578.968 193.151 573.547 199.047C568.127 204.731 561.455 209.469 553.533 213.259C545.611 216.838 536.229 218.628 525.388 218.628C516.84 218.628 508.396 217.575 500.057 215.47C491.926 213.364 484.525 209.89 477.854 205.047C471.182 199.994 465.866 193.256 461.905 184.834C457.943 176.412 455.963 165.779 455.963 152.936V57.8721H496.617V145.988C496.617 156.094 498.181 164.095 501.308 169.991C504.644 175.675 509.439 179.676 515.693 181.992C521.948 184.308 529.349 185.466 537.897 185.466C549.155 185.466 558.849 183.045 566.98 178.202C575.111 173.149 581.678 167.043 586.682 159.884C591.894 152.725 595.438 145.882 597.314 139.355Z" fill="#E5E6EB"/>
<path d="M414.708 81.3453L430.276 128.792L362.982 125.296L407.677 182.731L366.999 212.198L323.308 149.269L280.119 212.198L239.442 182.731L284.137 125.296L218.349 129.291L233.917 81.3451L300.207 81.3453L298.198 57.8721H348.418L345.907 81.8447L414.708 81.3453Z" fill="#E5E6EB"/>
<path d="M111.056 218.446C97.5574 218.446 86.0019 216.079 76.3893 211.344C66.9812 206.403 59.3116 200.021 53.3805 192.199C47.4493 184.17 43.0521 175.421 40.1888 165.951C37.3254 156.481 35.8938 147.217 35.8938 138.159C35.8938 126.837 37.2232 116.338 39.882 106.662C42.7453 96.9864 47.1425 88.546 53.0737 81.3407C59.0049 73.9296 66.6745 68.1654 76.0825 64.0481C85.6951 59.9308 97.3529 57.8722 111.056 57.8722C126.395 57.8722 140.2 61.2689 152.472 68.0625C164.743 74.856 174.458 84.3257 181.616 96.4717C188.979 108.412 192.661 122.308 192.661 138.159C192.661 154.422 188.979 168.627 181.616 180.773C174.254 192.713 164.436 201.977 152.165 208.565C139.894 215.152 126.191 218.446 111.056 218.446ZM98.171 187.258C109.011 187.258 118.419 185.199 126.395 181.082C134.576 176.965 140.814 171.303 145.109 164.098C149.609 156.687 151.858 148.041 151.858 138.159C151.858 123.337 147.154 111.397 137.746 102.339C128.543 93.2808 115.351 88.7518 98.171 88.7518C87.3313 88.7518 77.4119 90.7075 68.4129 94.6189C59.6184 98.5304 52.6646 104.192 47.5516 111.603C42.4385 118.808 39.882 127.66 39.882 138.159C39.882 148.041 42.234 156.687 46.938 164.098C51.642 171.303 58.3913 176.965 67.1858 181.082C75.9803 185.199 86.3087 187.258 98.171 187.258ZM0 61.269H38.0413L39.882 102.03V276.5H0V61.269Z" fill="#E5E6EB"/>
</svg>
